<?xml version="1.0" encoding="UTF-8"?><!DOCTYPE svg PUBLIC "-//W3C//DTD SVG 1.0//EN" "http://www.w3.org/TR/2001/REC-SVG-20010904/DTD/svg10.dtd" []><svg xmlns="http://www.w3.org/2000/svg" xmlns:xlink="http://www.w3.org/1999/xlink" clip-rule="evenodd" fill-rule="evenodd" height="1799.5" image-rendering="optimizeQuality" preserveAspectRatio="xMidYMid meet" text-rendering="geometricPrecision" version="1.0" viewBox="767.3 2433.6 5132.0 1799.5" width="5132.0" zoomAndPan="magnify"><g><path d="M0 0L6666.66 0 6666.66 6666.67 0 6666.67z" fill="none"/><g id="change1_1"><path d="M1351.2 2992.97l406.38 0 79.98 0 170.28 270.2 1869.02 0 128.16 -203.37 -3.81 0 -971.84 0 -170.28 -270.2 -450.35 0c-13.96,33.76 -47.2,57.51 -86,57.51 -51.38,0 -93.03,-41.65 -93.03,-93.03 0,-51.38 41.65,-93.03 93.03,-93.03 40.08,0 74.24,25.35 87.33,60.89l406.38 0 79.98 0 170.28 270.2 980.95 0 144.44 -229.21 79.97 0 389 0c13.74,-34.2 47.22,-58.35 86.34,-58.35 51.38,0 93.03,41.65 93.03,93.03 0,51.38 -41.65,93.03 -93.03,93.03 -39.77,0 -73.7,-24.96 -87.01,-60.06l-430.95 0 -14.93 23.68 -86.89 137.87 808.09 0 315.24 -500.23 79.97 0 389 0c13.74,-34.2 47.22,-58.34 86.34,-58.34 51.38,0 93.03,41.65 93.03,93.03 0,51.38 -41.65,93.03 -93.03,93.03 -39.77,0 -73.7,-24.96 -87.01,-60.06l-430.95 0 -14.93 23.68 -300.32 476.56 -888.06 0 -170.8 271.02 -971.84 0 -971.84 0 -170.28 -270.2 -450.35 0c-13.96,33.76 -47.2,57.51 -86,57.51 -51.38,0 -93.03,-41.65 -93.03,-93.03 0,-51.38 41.65,-93.03 93.03,-93.03 40.08,0 74.24,25.35 87.33,60.89zm-403.5 951.74l406.38 0 79.98 0 170.28 -270.2 1251.15 0 -59.67 94.67 -450.34 0c-13.96,-33.75 -47.2,-57.51 -86,-57.51 -51.38,0 -93.03,41.65 -93.03,93.03 0,51.38 41.65,93.03 93.03,93.03 40.08,0 74.24,-25.35 87.33,-60.89l406.38 0 79.98 0 102.3 -162.33 537.9 0 315.24 500.23 79.97 0 388.99 0c13.75,34.2 47.22,58.35 86.34,58.35 51.38,0 93.03,-41.65 93.03,-93.03 0,-51.38 -41.65,-93.03 -93.03,-93.03 -39.77,0 -73.7,24.96 -87.01,60.06l-430.96 0 -14.92 -23.68 -300.32 -476.56 -532.6 0 25.34 -40.21 1869.02 0 315.24 500.23 79.97 0 388.99 0c13.75,34.2 47.22,58.35 86.34,58.35 51.38,0 93.03,-41.65 93.03,-93.03 0,-51.38 -41.65,-93.03 -93.03,-93.03 -39.77,0 -73.7,24.96 -87.01,60.06l-430.96 0 -14.93 -23.68 -300.32 -476.56 -971.85 0 -971.84 0 -67.98 107.87 -359.28 0 -971.84 0 -170.28 270.2 -450.35 0c-13.96,-33.75 -47.2,-57.51 -86,-57.51 -51.38,0 -93.03,41.65 -93.03,93.03 0,51.38 41.65,93.03 93.03,93.03 40.08,0 74.24,-25.35 87.33,-60.89z" fill="#c5d3e2"/></g></g></svg>