<?xml version="1.0" encoding="UTF-8"?><!DOCTYPE svg PUBLIC "-//W3C//DTD SVG 1.0//EN" "http://www.w3.org/TR/2001/REC-SVG-20010904/DTD/svg10.dtd" []><svg xmlns="http://www.w3.org/2000/svg" xmlns:xlink="http://www.w3.org/1999/xlink" height="510.0" preserveAspectRatio="xMidYMid meet" version="1.0" viewBox="1.0 1.0 510.0 510.0" width="510.0" zoomAndPan="magnify"><g><g><g id="change1_1"><path d="M234.787,298.426l-21.213,21.213c-5.858,5.858-15.355,5.857-21.213,0c-5.858-5.857-5.858-15.355,0-21.213l21.213-21.213 l-2.375-2.375c-10.386-10.386-27.289-10.387-37.676,0l-47.177,47.177c-10.387,10.388-10.387,27.288,0,37.676l25.964,25.964 c10.387,10.387,27.289,10.387,37.676,0l47.177-47.177c10.387-10.388,10.387-27.288,0-37.676L234.787,298.426z"/><path d="M359.69,126.346c-10.386-10.386-27.289-10.387-37.676,0l-47.177,47.177c-10.387,10.388-10.387,27.288,0,37.676 l2.375,2.375l21.213-21.213c5.857-5.857,15.355-5.857,21.213,0c5.858,5.857,5.858,15.355,0,21.213l-21.213,21.213l2.375,2.375 c10.387,10.387,27.289,10.387,37.676,0l47.177-47.177c10.387-10.388,10.387-27.288,0-37.676L359.69,126.346z"/><path d="M256,1C115.049,1,1,115.068,1,256c0,140.951,114.068,255,255,255c140.951,0,255-114.068,255-255 C511,115.049,396.932,1,256,1z M406.867,211.198l-47.177,47.177c-22.135,22.135-57.963,22.139-80.102,0L277.213,256L256,277.213 l2.375,2.375c22.135,22.135,22.139,57.963,0,80.102l-47.177,47.177c-22.135,22.135-57.963,22.139-80.102,0l-25.964-25.964 c-10.698-10.698-16.59-24.922-16.59-40.051s5.892-29.353,16.59-40.051l47.177-47.177c22.135-22.135,57.963-22.139,80.102,0 l2.375,2.375L256,234.787l-2.375-2.375c-22.135-22.135-22.139-57.963,0-80.102l47.177-47.177 c22.135-22.135,57.963-22.139,80.102,0l25.964,25.964C429.002,153.232,429.006,189.06,406.867,211.198z"/></g></g></g></svg>