<svg xmlns="http://www.w3.org/2000/svg" xmlns:xlink="http://www.w3.org/1999/xlink" data-name="5" height="56.2" preserveAspectRatio="xMidYMid meet" version="1.0" viewBox="-0.1 -0.2 56.2 56.2" width="56.2" zoomAndPan="magnify"><defs fill="#000000"><linearGradient gradientUnits="userSpaceOnUse" id="a" x1="7.75" x2="42.66" xlink:actuate="onLoad" xlink:show="other" xlink:type="simple" y1="48.16" y2="13.25" fill="#000000"><stop offset="0" stop-color="#658def" fill="#000000"/><stop offset=".19" stop-color="#6896ea" fill="#000000"/><stop offset=".52" stop-color="#73afdc" fill="#000000"/><stop offset=".91" stop-color="#84d8c8" fill="#000000"/></linearGradient></defs><path d="m16.41,2.54c-.2-.26-.36-.53-.45-.83-.16-.53-.72-.83-1.25-.66-.53.16-.83.72-.66,1.25.29.94.99,1.71,1.72,2.5.7.75,1.47,1.53,1.29,2.83-2.63,3.91-5.93,6.07-10.69,4.45-.36-.16-.58-.44-.76-.78-.28-.51-.47-1.12-.7-1.75-.14-.38-.29-.76-.46-1.14.51-.85.66-1.69.56-2.51-.07-.55-.57-.94-1.11-.87-.55.07-.94.57-.87,1.11,0,.05.01.11.01.16-.42-.42-.92-.81-1.54-1.15-.48-.27-1.09-.09-1.36.39-.27.48-.09,1.09.39,1.36,1.19.66,1.78,1.58,2.19,2.51-.42.03-.84-.08-1.27-.28-.5-.24-1.1-.03-1.33.47-.24.5-.03,1.1.47,1.33.96.46,1.91.62,2.84.4.43,1.09.97,1.98,1.92,2.49.95,1.4,1.36,2.61,1.2,3.67-.16,1.07-.91,1.94-2.07,2.7-.11.07-.22.13-.32.18.03-.49-.03-1.02-.16-1.57-.13-.54-.67-.87-1.2-.74-.54.13-.87.67-.74,1.2.1.42.14.8.09,1.15-.23-.08-.46-.18-.69-.29-.5-.24-1.1-.03-1.33.47-.24.5-.03,1.1.47,1.33.9.43,1.81.71,2.75.68-.25.38-.61.64-.92.93-.64.58-1.19,1.24-1.38,2.33-.09.54.27,1.06.82,1.15.54.09,1.06-.27,1.15-.82.13-.77.67-1.1,1.12-1.52.63-.57,1.2-1.2,1.41-2.24,1.59.94,2.59,2.09,3.04,3.46.53,1.61.32,3.48-.42,5.56-.37.35-.68.72-.94,1.11-.06.02-.13.05-.19.08-.96.53-1.89.6-2.8.4-.54-.12-1.07.22-1.19.76-.12.54.22,1.07.76,1.19.76.17,1.53.21,2.31.07-.21.74-.36,1.5-.5,2.27-.06.33-.12.67-.19,1-1.41-.23-2.64.21-3.84.78-.5.24-.71.84-.47,1.33.24.5.84.71,1.33.47.76-.36,1.52-.7,2.4-.64-.31.72-.77,1.39-1.47,1.97-.42.35-.48.98-.13,1.41.35.42.98.48,1.41.13,2-1.67,2.51-3.86,2.92-6.09.14-.74.26-1.48.47-2.2.1.38.17.8.25,1.22.27,1.41.68,2.89,2.08,4.06.42.36,1.05.3,1.41-.12.36-.42.3-1.05-.12-1.41-.57-.47-.88-1.03-1.09-1.6.3-.05.6.01.9.21.46.3,1.08.17,1.38-.3.3-.46.17-1.08-.3-1.38-.83-.53-1.63-.68-2.42-.5,0-.02,0-.03,0-.05-.18-.9-.44-1.71-.95-2.35.15-.18.31-.35.5-.51l.02-.02c2.13-1.99,4.23-3.19,6.36-2.86,1.2.19,2.38.87,3.58,2.1-.82,1.02-.92,2.06-.92,3.09,0,.79.16,1.57-.46,2.28-.36.42-.32,1.05.1,1.41s1.05.32,1.41-.1c.82-.95.95-1.95.95-2.98,0-.72-.11-1.48.33-2.21.74.95,1.02,2.08,1.44,3.37.16.49.33.99.53,1.52,0,.01,0,.02,0,.04-.14,1.26-.55,2.23-1.47,2.72-.49.26-.67.86-.42,1.35.26.49.86.67,1.35.42.81-.43,1.42-1.05,1.84-1.86.5.83,1.13,1.71,1.94,2.63.36.41,1,.46,1.41.09.41-.36.46-1,.09-1.41-.1-.11-.2-.23-.29-.34h.54c.55,0,1-.45,1-1s-.45-1-1-1h-1.97c-1.02-1.69-1.45-3.18-1.87-4.48.24-.04.49,0,.76.05.84.15,1.82.43,3.08.43.55,0,1-.45,1-1s-.45-1-1-1c-1.4,0-2.41-.4-3.28-.48-.45-.04-.87-.02-1.28.1-.34-.73-.76-1.39-1.36-1.99.33-1.67.78-3.1,1.41-4.21.6-1.06,1.34-1.82,2.3-2.14.82-.28,1.78-.22,2.89.15.04.02.09.03.14.04.6.11,1.18.24,1.74.37.04.29.13.58.26.86.34.73.96,1.29,1.72,1.56.57.2,1.19.43,1.76.63.76.27,1.6.23,2.32-.11.25-.12.47-.27.68-.44.24.13.48.25.71.38-.02.27,0,.54.05.81.16.79.62,1.49,1.3,1.93.49.33,1.03.68,1.52,1.01.67.45,1.49.61,2.28.45.08-.02.16-.03.24-.06.2.21.4.42.59.64-.19.35-.3.74-.34,1.15-.07.8.19,1.6.71,2.22.38.45.8.94,1.18,1.39.52.62,1.26,1,2.07,1.07.45.04.89-.03,1.3-.18.65,1.88.2,3.35.16,3.48-.74,1.83-1.98,2.66-3.33,3.19-1.03.4-2.13.64-3.14.95-1.86.57-3.46,1.37-4.31,3.29-1.31.32-2.28,1.51-2.28,2.91,0,1.66,1.34,3,3,3s3-1.34,3-3c0-1.14-.64-2.14-1.58-2.64.41-.59.98-.96,1.62-1.24.75-.33,1.59-.54,2.44-.78.94-.26,1.89-.55,2.78-.98-.17.26-.32.48-.46.69-.39.6-.67,1.16-.77,2.12-1.18.4-2.03,1.52-2.03,2.84,0,1.66,1.34,3,3,3s3-1.34,3-3c0-1.29-.81-2.38-1.95-2.81.11-.66.39-1.01.74-1.53.36-.54.79-1.2,1.23-2.29.18.28.38.54.62.79-.4.51-.64,1.15-.64,1.85,0,1.66,1.34,3,3,3s3-1.34,3-3-1.34-3-3-3c-.2,0-.4.02-.59.06-.89-.7-1.25-1.75-1.39-2.96.19-.68.59-2.71-.43-5.11l.69-.59c.62-.52,1-1.26,1.07-2.07.07-.8-.19-1.6-.71-2.22-.38-.45-.8-.94-1.18-1.39-.52-.62-1.26-1-2.07-1.07-.26-.02-.52,0-.78.04-.34-.47-.7-.93-1.11-1.4.16-.49.19-1.02.09-1.53-.16-.79-.63-1.48-1.3-1.93-.49-.33-1.03-.68-1.52-1.01-.67-.45-1.49-.61-2.28-.45-.29.06-.57.16-.83.3-.54-.3-1.1-.58-1.7-.86-.04-.3-.13-.59-.26-.87-.34-.73-.96-1.29-1.72-1.56-.57-.2-1.19-.43-1.76-.63-.76-.27-1.6-.23-2.32.11-.33.16-.63.37-.88.63-.68-.15-1.38-.3-2.11-.43-1.5-1.2-2.35-2.33-2.53-3.63-.18-1.32.3-2.78,1.29-4.59.26-.09.5-.19.72-.29.31.16.55.41.78.68.27.31.52.64.8.95.86.97,1.94,1.82,4.02,1.82.55,0,1-.45,1-1s-.45-1-1-1c-.93,0-1.55-.28-2.02-.66.29-.42.63-.77,1.16-.85.55-.07.93-.58.86-1.12-.07-.55-.58-.93-1.12-.86-.96.13-1.67.63-2.25,1.33-.18-.19-.36-.38-.55-.55.17-.19.33-.38.48-.58.8-1.03,1.38-2.21,3.67-2.73.54-.12.88-.66.75-1.2-.12-.54-.66-.88-1.2-.75-1.56.36-2.52.93-3.24,1.58.03-.38.15-.76.35-1.15.25-.49.06-1.09-.43-1.35-.49-.25-1.09-.06-1.35.43-.7,1.34-.81,2.68-.2,4.02-.48.61-1.06,1.16-2.18,1.47h-.03c-3.17.98-5.48,1.02-6.97-.03-.89-.63-1.44-1.65-1.72-3.01.05-.31.07-.59.07-.87,2.01.13,3.92-.2,5.7-1.15l1.97.49c.53.13,1.08-.19,1.21-.73.13-.53-.19-1.08-.73-1.21l-.3-.08c.27-.24.53-.49.79-.77.38-.4.36-1.03-.04-1.41-.4-.38-1.03-.36-1.41.04-1.05,1.11-2.17,1.86-3.36,2.3.19-.31.45-.6.75-.87.41-.36.46-1,.09-1.41-.36-.41-1-.46-1.41-.09-.93.81-1.54,1.76-1.75,2.87-.68.05-1.38.03-2.09-.06-.16-.28-.34-.54-.54-.79,0-.03.02-.06.02-.09.22-1.19.87-1.84,1.61-2.38.44-.33.54-.95.21-1.4-.33-.44-.95-.54-1.4-.21-.81.6-1.54,1.31-2,2.35h0Zm30.59,49.46h0c.55,0,1,.45,1,1s-.45,1-1,1-1-.45-1-1,.45-1,1-1h0Zm-7.99,0h-.03c-.55,0-.99.45-.99,1s.45,1,1,1,1-.45,1-1-.44-.99-.99-1h0Zm13.99-4c.55,0,1,.45,1,1s-.45,1-1,1-1-.45-1-1,.45-1,1-1h0Zm-3.01-12.13l-1.47,1.24c-.21.18-.48.27-.76.24-.27-.02-.53-.15-.71-.36l-1.18-1.39c-.18-.21-.27-.48-.24-.76.02-.27.15-.53.36-.71l1.47-1.24c.21-.18.48-.27.76-.24.27.02.53.15.71.36l1.18,1.39c.18.21.27.48.24.76-.02.27-.15.53-.36.71h0Zm-4.56-4.75s-.38.57-.39.59c.11.12.21.23.32.35l.49-.41c-.13-.18-.27-.35-.41-.53h0Zm-.95-2.18l-1.07,1.6c-.15.23-.39.39-.66.44-.27.05-.55,0-.78-.15l-1.52-1.01c-.23-.15-.39-.39-.44-.66-.05-.27,0-.55.15-.78l1.06-1.6c.15-.23.39-.39.66-.44.27-.05.55,0,.78.15l1.52,1.01c.23.15.39.39.44.66.05.27,0,.55-.15.78h0Zm-13.41-5.61c-.57-.12-1.15-.23-1.75-.34-.16-.03-.31-.1-.44-.2-2.15-1.67-3.23-3.29-3.48-5.09-.17-1.26.07-2.62.73-4.2-2.88.55-5.05.21-6.56-.86-.83-.59-1.48-1.39-1.95-2.43-2.54,3.16-5.63,4.91-9.62,4.32.5,1.18.64,2.26.49,3.24-.18,1.14-.75,2.17-1.7,3.08,1.92,1.2,3.09,2.69,3.66,4.4.41,1.25.49,2.63.27,4.12,1.87-1.21,3.76-1.75,5.62-1.46,1.35.21,2.71.86,4.06,2.06.9-3.5,2.51-5.82,4.74-6.56,1.17-.39,2.53-.39,4.1.13.56.11,1.1.22,1.64.35l.2-.55h0Zm2.39-.45c-.05.18-.88,2.19-.88,2.19-.09.26-.08.55.04.8.12.25.33.44.59.53.57.2,1.19.43,1.76.63.26.09.55.08.79-.04.25-.12.44-.33.53-.59l.65-1.81c.09-.26.08-.55-.04-.8-.12-.25-.33-.44-.59-.53-.57-.2-1.19-.43-1.76-.63-.26-.09-.55-.08-.79.04-.11.05-.21.13-.3.21h0Zm5.15,2.98l-.28.78c.15.08.29.16.43.23l.47-.7c-.2-.11-.41-.21-.62-.31h0Zm-22.12-10.85c-2.48,0-4.5,2.02-4.5,4.5s2.02,4.5,4.5,4.5,4.5-2.02,4.5-4.5-2.02-4.5-4.5-4.5h0Zm0,2c1.38,0,2.5,1.12,2.5,2.5s-1.12,2.5-2.5,2.5-2.5-1.12-2.5-2.5,1.12-2.5,2.5-2.5h0Z" fill="#ffffff" fill-rule="evenodd"/></svg>