<?xml version="1.0" encoding="UTF-8"?>
<svg version="1.1" xmlns="http://www.w3.org/2000/svg" width="512" height="512">
<!-- Outer shield only: interior is transparent so the masked image fills the whole badge -->
<path fill="#000000" fill-rule="nonzero" transform="translate(259,10)" d="M0 0 C4.76055586 2.83350434 8.71942097 6.31441413 12.8125 10 C30.46013486 25.54363753 50.74192791 38.03341978 72 48 C73.18980469 48.57105469 74.37960937 49.14210937 75.60546875 49.73046875 C109.7886204 65.70420259 147.75462988 72.92451573 185.21386719 75.22949219 C190.84197956 75.63541842 194.45224165 76.50410956 198.60662937 80.5739212 C200.63785442 84.1106055 200.4170789 87.54029233 200.38768005 91.50866699 C200.39575836 92.8095722 200.39575836 92.8095722 200.40399987 94.13675833 C200.41833037 97.048998 200.41116277 99.96078636 200.40405273 102.87304688 C200.40975426 104.95938992 200.41671767 107.04572984 200.42485046 109.13206482 C200.44283755 114.80865437 200.44160104 120.48508977 200.43590808 126.1616993 C200.43281902 130.90948839 200.43890674 135.65724776 200.44494683 140.40503263 C200.45901354 151.62372519 200.45741771 162.84234168 200.44604492 174.06103516 C200.43460854 185.59650896 200.4485588 197.13174904 200.4754414 208.66719198 C200.49769429 218.59108657 200.50421289 228.51490835 200.49836498 238.43882608 C200.49501135 244.35611966 200.4973015 250.2732641 200.51461601 256.1905365 C200.53023219 261.77204537 200.52596893 267.35321343 200.50731087 272.93470955 C200.50366275 274.96780907 200.50662101 277.00093464 200.51719666 279.03400993 C200.67596024 312.12036252 190.17428376 340.82345 170 367 C169.33355469 367.87785156 168.66710937 368.75570313 167.98046875 369.66015625 C163.86389206 374.95050226 159.43159214 379.91085377 154.85571289 384.80322266 C152.77955296 387.02651798 150.79355547 389.26113693 148.90625 391.6484375 C147.14328494 393.82324276 145.3946877 395.52673731 143.25 397.3125 C140.42234077 399.72356118 137.77209193 402.20549335 135.1875 404.875 C130.94065958 409.17112676 126.34243122 412.92179158 121.625 416.68701172 C119.8683774 418.10635011 118.13658044 419.55264658 116.40625 421.00390625 C107.11000526 428.75826557 97.43970785 435.72004315 87.36279297 442.42236328 C85.08658731 443.94218566 82.82485554 445.48129459 80.56640625 447.02734375 C57.96571853 462.42589181 33.9440028 475.82598201 9.375 487.8125 C8.51640381 488.23942139 7.65780762 488.66634277 6.77319336 489.10620117 C5.56675171 489.68204956 5.56675171 489.68204956 4.3359375 490.26953125 C3.64032715 490.60573486 2.9447168 490.94193848 2.22802734 491.28833008 C-2.69515568 492.86087868 -6.54864039 492.10094711 -11.10546875 489.90234375 C-12.56025635 489.20625 -12.56025635 489.20625 -14.04443359 488.49609375 C-15.08164551 487.98175781 -16.11885742 487.46742188 -17.1875 486.9375 C-18.27885254 486.40382813 -19.37020508 485.87015625 -20.49462891 485.3203125 C-63.1734667 464.18435754 -108.1282055 437.21054754 -141.4296875 402.5703125 C-143.20602767 400.79397233 -145.08414589 399.18696946 -147 397.5625 C-150.37648988 394.64614598 -153.29343521 391.54027931 -156.171875 388.13671875 C-158.1168342 385.86344379 -160.14860655 383.68924351 -162.1875 381.5 C-185.95322584 355.09814416 -206.13095915 319.61550241 -206.15390015 283.2641449 C-206.1582824 282.40893488 -206.16266465 281.55372485 -206.1671797 280.67259938 C-206.1804857 277.82006064 -206.18672781 274.96755273 -206.19287109 272.11499023 C-206.20077804 270.06460432 -206.20904735 268.01421978 -206.21765137 265.96383667 C-206.24378571 259.24543573 -206.25916255 252.5270288 -206.2734375 245.80859375 C-206.27879923 243.49354613 -206.28417674 241.17849855 -206.28956985 238.863451 C-206.31117892 229.23740776 -206.32991799 219.61136616 -206.34119225 209.98530483 C-206.35745249 196.19471522 -206.39070329 182.40440633 -206.44759309 168.61392254 C-206.48625406 158.91185703 -206.50581993 149.20986678 -206.51111281 139.50772625 C-206.51476923 133.7138135 -206.52682337 127.92020077 -206.55921555 122.12637138 C-206.58923113 116.68027307 -206.59563116 111.23465744 -206.58383179 105.78849411 C-206.58361056 103.78980652 -206.59195586 101.79109692 -206.60948563 99.79248619 C-206.63211561 97.06403072 -206.62391156 94.33733518 -206.60800171 91.60887146 C-206.62882484 90.422437 -206.62882484 90.422437 -206.65006864 89.21203417 C-206.56793379 83.49659838 -205.0958845 80.9968449 -201 77 C-197.90371518 75.45185759 -194.55161395 75.51953468 -191.14453125 75.23828125 C-189.48834761 75.09190698 -187.83226406 74.94439695 -186.17626953 74.79589844 C-185.3018219 74.71786987 -184.42737427 74.63984131 -183.52642822 74.55944824 C-142.27773256 70.80610915 -102.77673514 61.58607733 -66 42 C-65.27039063 41.61585937 -64.54078125 41.23171875 -63.7890625 40.8359375 C-53.2755095 35.27416031 -43.44941334 29.22251605 -34 22 C-33.40703125 21.54979492 -32.8140625 21.09958984 -32.203125 20.63574219 C-25.21160275 15.30620039 -18.48598415 9.81697821 -12.0859375 3.77734375 C-8.1700625 0.44078359 -5.16685904 -0.62002308 0 0 Z"/>
</svg>
